<svg width="48" height="49" viewBox="0 0 48 49" fill="none" xmlns="http://www.w3.org/2000/svg">
<path d="M39 49H9C4.029 49 0 44.971 0 40V10C0 5.029 4.029 1 9 1H39C43.971 1 48 5.029 48 10V40C48 44.971 43.971 49 39 49Z" fill="#FBF6EA"/>
<g clip-path="url(#clip0_603_2420)">
<path d="M18.1152 27.4258H15.5313C14.5995 27.4258 13.8414 28.2183 13.8414 29.1925V34.9155C13.8414 35.5138 14.307 36.0005 14.8792 36.0005H18.7672C19.3395 36.0005 19.8051 35.5138 19.8051 34.9155V29.1926C19.8051 28.2183 19.047 27.4258 18.1152 27.4258Z" fill="#232536"/>
<path d="M25.6996 23.9492H23.1157C22.1839 23.9492 21.4258 24.7418 21.4258 25.7159V34.9148C21.4258 35.5131 21.8914 35.9998 22.4636 35.9998H26.3516C26.9239 35.9998 27.3894 35.5131 27.3894 34.9148V25.7159C27.3894 24.7417 26.6314 23.9492 25.6996 23.9492Z" fill="#232536"/>
<path d="M33.4252 19.9893H30.8414C29.9095 19.9893 29.1515 20.7818 29.1515 21.7559V34.9153C29.1515 35.5135 29.617 36.0002 30.1893 36.0002H34.0773C34.6495 36.0002 35.1151 35.5135 35.1151 34.9153V21.7559C35.1151 20.7818 34.357 19.9893 33.4252 19.9893Z" fill="#232536"/>
<path d="M31.368 12.6686C31.0518 12.2016 30.5379 11.9546 29.9928 12.0069L25.1126 12.4789C24.5677 12.5317 24.1057 12.8734 23.877 13.3931C23.6482 13.9128 23.7003 14.502 24.0164 14.969L24.2888 15.3715L18.2316 19.7473L18.2254 19.7518C17.7956 20.0698 17.51 20.5437 17.4212 21.0863C17.3324 21.6289 17.4509 22.1751 17.7551 22.6244C18.0592 23.0737 18.5125 23.3724 19.0315 23.4653C19.144 23.4854 19.2566 23.4954 19.3684 23.4954C19.7712 23.4954 20.1636 23.3662 20.4994 23.1188L26.5663 18.7362L26.8475 19.1516C27.1356 19.5771 27.5879 19.8203 28.0782 19.8203C28.126 19.8203 28.1742 19.8179 28.2226 19.8133C28.7676 19.7606 29.2296 19.4188 29.4583 18.899L31.5074 14.2446C31.7362 13.7248 31.6841 13.1357 31.368 12.6686Z" fill="#1B7C9D"/>
</g>
<defs>
<clipPath id="clip0_603_2420">
<rect width="22.9565" height="24" fill="white" transform="translate(13 12)"/>
</clipPath>
</defs>
</svg>
