<svg width="24" height="24" viewBox="0 0 24 24" fill="none" xmlns="http://www.w3.org/2000/svg">
<g clip-path="url(#clip0_427_112)">
<path d="M15.5157 7.03125C15.5157 7.80647 16.1468 8.4375 16.922 8.4375H21.1024C21.0265 7.44788 20.7969 6.50213 20.4297 5.625H16.922C16.1468 5.625 15.5157 6.25603 15.5157 7.03125Z" fill="#232536"/>
<path d="M6.37512 24H14.8126C15.2013 24 15.5157 23.6855 15.5157 23.2969V19.6875H16.922V15.1172L9.89117 9.84375H3.56262C3.17398 9.84375 2.8595 10.1582 2.8595 10.5469C2.8595 13.0373 3.88053 15.4228 5.672 17.1428V23.2969C5.672 23.6855 5.98648 24 6.37512 24Z" fill="#1B7C9D"/>
<path d="M12.001 0C11.6123 0 11.2978 0.314484 11.2978 0.703125V1.40625H8.35583C8.0646 0.589594 7.29144 0 6.37598 0C5.21282 0 4.2666 0.946219 4.2666 2.10938C4.2666 3.27253 5.21282 4.21875 6.37598 4.21875C7.29144 4.21875 8.0646 3.62916 8.35583 2.8125H11.2978V5.625H4.13708C3.84585 4.80834 3.07269 4.21875 2.15723 4.21875C0.99407 4.21875 0.000976562 5.16497 0.000976562 6.32812C0.000976562 7.49128 0.99407 8.4375 2.15723 8.4375C3.07269 8.4375 3.84585 7.84791 4.13708 7.03125H11.2978V9.14095L18.0476 14.2033C18.2247 14.3358 18.3291 14.5445 18.3291 14.7656V19.6875H19.0322C20.1954 19.6875 21.1416 18.7413 21.1416 17.5781V14.0625H23.2978C23.5574 14.0625 23.7957 13.9197 23.9179 13.691C24.0401 13.4624 24.0264 13.185 23.8829 12.9693L21.7523 9.84375H16.9228C15.3717 9.84375 14.1103 8.58239 14.1103 7.03125C14.1103 5.48011 15.3717 4.21875 16.9228 4.21875H19.6888C18.0618 1.68647 15.2281 0 12.001 0V0Z" fill="#232536"/>
</g>
<defs>
<clipPath id="clip0_427_112">
<rect width="24" height="24" fill="white"/>
</clipPath>
</defs>
</svg>
