<svg width="23" height="24" viewBox="0 0 23 24" fill="none" xmlns="http://www.w3.org/2000/svg">
<g clip-path="url(#clip0_427_123)">
<path d="M5.11521 15.4258H2.53134C1.59954 15.4258 0.841431 16.2183 0.841431 17.1925V22.9155C0.841431 23.5138 1.30702 24.0005 1.87923 24.0005H5.76723C6.33948 24.0005 6.80507 23.5138 6.80507 22.9155V17.1926C6.80507 16.2183 6.04701 15.4258 5.11521 15.4258Z" fill="#232536"/>
<path d="M12.6996 11.9492H10.1157C9.18389 11.9492 8.42578 12.7418 8.42578 13.7159V22.9148C8.42578 23.5131 8.89137 23.9998 9.46363 23.9998H13.3516C13.9239 23.9998 14.3894 23.5131 14.3894 22.9148V13.7159C14.3894 12.7417 13.6314 11.9492 12.6996 11.9492Z" fill="#232536"/>
<path d="M20.4252 7.98926H17.8414C16.9095 7.98926 16.1515 8.78182 16.1515 9.75593V22.9153C16.1515 23.5135 16.617 24.0002 17.1893 24.0002H21.0773C21.6495 24.0002 22.1151 23.5135 22.1151 22.9153V9.75593C22.1151 8.78182 21.357 7.98926 20.4252 7.98926Z" fill="#232536"/>
<path d="M18.368 0.668647C18.0518 0.201584 17.5379 -0.0454012 16.9928 0.00691139L12.1126 0.478944C11.5677 0.531678 11.1057 0.873397 10.877 1.3931C10.6482 1.91281 10.7003 2.50198 11.0164 2.96904L11.2888 3.37151L5.23164 7.74725L5.22545 7.7518C4.79564 8.06975 4.51003 8.54371 4.42121 9.08629C4.33239 9.62887 4.45093 10.1751 4.75506 10.6244C5.05919 11.0737 5.51254 11.3724 6.03153 11.4653C6.14398 11.4854 6.25657 11.4954 6.36839 11.4954C6.77121 11.4954 7.16358 11.3662 7.49945 11.1188L13.5663 6.73621L13.8475 7.15157C14.1356 7.57714 14.5879 7.82029 15.0782 7.82029C15.126 7.82029 15.1742 7.81794 15.2226 7.8133C15.7676 7.76057 16.2296 7.4188 16.4583 6.89905L18.5074 2.24459C18.7362 1.72479 18.6841 1.13566 18.368 0.668647Z" fill="#1B7C9D"/>
</g>
<defs>
<clipPath id="clip0_427_123">
<rect width="22.9565" height="24" fill="white"/>
</clipPath>
</defs>
</svg>
