<svg width="525" height="523" viewBox="0 0 525 523" fill="none" xmlns="http://www.w3.org/2000/svg">
<path d="M236.93 -282.066C141.645 -243.948 107.426 -166.235 111.758 -74.546C115.676 8.37111 149.878 67.5708 230.908 110.973C341.114 170.003 466.994 141.453 555.942 59.9586C628.012 -6.07272 535.27 -120.179 625.632 -165.909C702.056 -204.585 776.445 -101.683 850.69 -143.469C943.197 -195.534 934.212 -307.21 875.912 -389.145C824.393 -461.549 747.334 -499.976 651.566 -484.912C525.743 -465.12 614.633 -272.103 494.518 -233.98C397.999 -203.345 330.285 -319.413 236.93 -282.066Z" stroke="white" stroke-opacity="0.5" stroke-width="0.5"/>
<path d="M245.573 -268.576C150.288 -230.458 116.069 -152.745 120.401 -61.0557C124.319 21.8613 158.521 81.061 239.551 124.464C349.757 183.493 475.637 154.943 564.585 73.4488C636.655 7.41752 543.913 -106.689 634.275 -152.419C710.699 -191.095 785.088 -88.1928 859.333 -129.979C951.84 -182.044 942.855 -293.72 884.555 -375.655C833.036 -448.059 755.977 -486.485 660.21 -471.421C534.386 -451.63 623.276 -258.613 503.162 -220.489C406.643 -189.855 338.928 -305.923 245.573 -268.576Z" stroke="white" stroke-opacity="0.5" stroke-width="0.5"/>
<path d="M254.216 -255.086C158.932 -216.967 124.712 -139.255 129.044 -47.5655C132.962 35.3516 167.164 94.5513 248.194 137.954C358.4 196.984 484.281 168.433 573.228 86.9391C645.299 20.9078 552.556 -93.1989 642.919 -138.929C719.343 -177.604 793.731 -74.7026 867.976 -116.489C960.483 -168.554 951.498 -280.23 893.198 -362.164C841.68 -434.569 764.62 -472.995 668.853 -457.931C543.029 -438.139 631.919 -245.122 511.805 -206.999C415.286 -176.365 347.571 -292.433 254.216 -255.086Z" stroke="white" stroke-opacity="0.5" stroke-width="0.5"/>
<path d="M262.859 -241.595C167.574 -203.476 133.355 -125.763 137.687 -34.0743C141.605 48.8428 175.807 108.042 256.837 151.445C367.043 210.475 492.923 181.925 581.871 100.43C653.941 34.399 561.199 -79.7077 651.561 -125.437C727.985 -164.113 802.374 -61.2114 876.619 -102.998C969.126 -155.062 960.141 -266.738 901.841 -348.673C850.322 -421.078 773.263 -459.504 677.496 -444.44C551.672 -424.648 640.562 -231.631 520.448 -193.508C423.929 -162.874 356.214 -278.942 262.859 -241.595Z" stroke="white" stroke-opacity="0.5" stroke-width="0.5"/>
<path d="M271.502 -228.105C176.217 -189.986 141.998 -112.273 146.33 -20.5841C150.248 62.333 184.45 121.533 265.48 164.935C375.686 223.965 501.566 195.415 590.514 113.921C662.585 47.8892 569.842 -66.2175 660.204 -111.947C736.628 -150.623 811.017 -47.7211 885.262 -89.5074C977.769 -141.572 968.784 -253.248 910.484 -335.183C858.966 -407.587 781.906 -446.014 686.139 -430.95C560.315 -411.158 649.205 -218.141 529.091 -180.018C432.572 -149.384 364.857 -265.451 271.502 -228.105Z" stroke="white" stroke-opacity="0.5" stroke-width="0.5"/>
<path d="M280.145 -214.613C184.861 -176.495 150.641 -98.782 154.973 -7.09285C158.891 75.8242 193.093 135.024 274.123 178.426C384.329 237.456 510.21 208.906 599.157 127.412C671.228 61.3804 578.485 -52.7262 668.848 -98.4559C745.272 -137.132 819.66 -34.2299 893.905 -76.0162C986.412 -128.081 977.427 -239.757 919.127 -321.692C867.609 -394.096 790.549 -432.523 694.782 -417.459C568.958 -397.667 657.848 -204.65 537.734 -166.527C441.215 -135.892 373.5 -251.96 280.145 -214.613Z" stroke="white" stroke-opacity="0.5" stroke-width="0.5"/>
<path d="M291.792 -197.204C196.508 -159.086 162.289 -81.3728 166.62 10.3163C170.538 93.2334 204.74 152.433 285.77 195.836C395.976 254.866 521.857 226.315 610.804 144.821C682.875 78.7896 590.132 -35.3171 680.495 -81.0467C756.919 -119.723 831.307 -16.8207 905.552 -58.6071C998.059 -110.672 989.074 -222.348 930.774 -304.283C879.256 -376.687 802.196 -415.113 706.429 -400.049C580.605 -380.257 669.495 -187.24 549.381 -149.117C452.862 -118.483 385.147 -234.551 291.792 -197.204Z" stroke="white" stroke-opacity="0.5" stroke-width="0.5"/>
<path d="M303.439 -179.795C208.155 -141.676 173.936 -63.9636 178.268 27.7255C182.185 110.643 216.387 169.842 297.418 213.245C407.624 272.275 533.504 243.724 622.452 162.23C694.522 96.1988 601.78 -17.9079 692.142 -63.6376C768.566 -102.313 842.955 0.588448 917.199 -41.1979C1009.71 -93.2625 1000.72 -204.939 942.422 -286.873C890.903 -359.278 813.844 -397.704 718.076 -382.64C592.253 -362.848 681.143 -169.831 561.028 -131.708C464.509 -101.074 396.795 -217.142 303.439 -179.795Z" stroke="white" stroke-opacity="0.5" stroke-width="0.5"/>
<path d="M315.087 -162.386C219.802 -124.267 185.583 -46.5545 189.915 45.1347C193.833 128.052 228.035 187.251 309.065 230.654C419.271 289.684 545.151 261.134 634.099 179.639C706.17 113.608 613.427 -0.498701 703.789 -46.2284C780.213 -84.9042 854.602 17.9976 928.847 -23.7887C1021.35 -75.8533 1012.37 -187.529 954.069 -269.464C902.55 -341.869 825.491 -380.295 729.724 -365.231C603.9 -345.439 692.79 -152.422 572.676 -114.299C476.157 -83.6648 408.442 -199.733 315.087 -162.386Z" stroke="white" stroke-opacity="0.5" stroke-width="0.5"/>
<path d="M326.734 -144.976C231.45 -106.857 197.231 -29.1443 201.563 62.5448C205.48 145.462 239.682 204.662 320.712 248.064C430.918 307.094 556.799 278.544 645.747 197.049C717.817 131.018 625.074 16.9115 715.437 -28.8182C791.861 -67.494 866.249 35.4078 940.494 -6.37854C1033 -58.4432 1024.02 -170.119 965.717 -252.054C914.198 -324.459 837.138 -362.885 741.371 -347.821C615.547 -328.029 704.437 -135.012 584.323 -96.8889C487.804 -66.2546 420.089 -182.322 326.734 -144.976Z" stroke="white" stroke-opacity="0.5" stroke-width="0.5"/>
<path d="M338.381 -127.566C243.097 -89.448 208.878 -11.7351 213.21 79.954C217.127 162.871 251.329 222.071 332.359 265.473C442.565 324.503 568.446 295.953 657.393 214.459C729.464 148.427 636.721 34.3206 727.084 -11.409C803.508 -50.0848 877.896 52.817 952.141 11.0306C1044.65 -41.034 1035.66 -152.71 977.364 -234.645C925.845 -307.049 848.785 -345.476 753.018 -330.412C627.194 -310.62 716.084 -117.603 595.97 -79.4797C499.451 -48.8454 431.736 -164.913 338.381 -127.566Z" stroke="white" stroke-opacity="0.5" stroke-width="0.5"/>
<path d="M350.028 -110.156C254.744 -72.0378 220.525 5.67503 224.857 97.3642C228.775 180.281 262.977 239.481 344.007 282.883C454.213 341.913 580.093 313.363 669.041 231.869C741.111 165.837 648.369 51.7308 738.731 6.00112C815.155 -32.6747 889.544 70.2271 963.789 28.4408C1056.3 -23.6238 1047.31 -135.3 989.011 -217.235C937.492 -289.639 860.433 -328.066 764.665 -313.001C638.842 -293.21 727.732 -100.193 607.617 -62.0695C511.098 -31.4353 443.384 -147.503 350.028 -110.156Z" stroke="white" stroke-opacity="0.5" stroke-width="0.5"/>
<path d="M361.676 -92.7471C266.392 -54.6286 232.173 23.0842 236.505 114.773C240.422 197.69 274.624 256.89 355.654 300.293C465.86 359.323 591.741 330.772 680.689 249.278C752.759 183.247 660.016 69.14 750.379 23.4103C826.803 -15.2655 901.191 87.6363 975.436 45.85C1067.94 -6.21467 1058.96 -117.891 1000.66 -199.826C949.14 -272.23 872.08 -310.656 776.313 -295.592C650.489 -275.8 739.379 -82.7835 619.265 -44.6603C522.746 -14.0261 455.031 -130.094 361.676 -92.7471Z" stroke="white" stroke-opacity="0.5" stroke-width="0.5"/>
<path d="M373.323 -75.3379C278.039 -37.2194 243.82 40.4934 248.152 132.183C252.069 215.1 286.271 274.299 367.301 317.702C477.507 376.732 603.388 348.181 692.336 266.687C764.406 200.656 671.663 86.5492 762.026 40.8195C838.45 2.14368 912.838 105.045 987.083 63.2592C1079.59 11.1945 1070.61 -100.482 1012.31 -182.416C960.787 -254.821 883.727 -293.247 787.96 -278.183C662.136 -258.391 751.026 -65.3743 630.912 -27.2512C534.393 3.38307 466.678 -112.685 373.323 -75.3379Z" stroke="white" stroke-opacity="0.5" stroke-width="0.5"/>
<path d="M384.971 -57.9288C289.686 -19.8103 255.467 57.9026 259.799 149.592C263.717 232.509 297.919 291.708 378.949 335.111C489.155 394.141 615.035 365.591 703.983 284.096C776.053 218.065 683.311 103.958 773.673 58.2287C850.097 19.5529 924.486 122.455 998.731 80.6683C1091.24 28.6037 1082.25 -83.0724 1023.95 -165.007C972.434 -237.412 895.375 -275.838 799.607 -260.774C673.784 -240.982 762.674 -47.9651 642.559 -9.84198C546.041 20.7922 478.326 -95.2756 384.971 -57.9288Z" stroke="white" stroke-opacity="0.5" stroke-width="0.5"/>
<path d="M396.618 -40.5186C301.334 -2.40011 267.114 75.3127 271.446 167.002C275.364 249.919 309.566 309.119 390.596 352.521C500.802 411.551 626.683 383.001 715.63 301.506C787.701 235.475 694.958 121.368 785.32 75.6388C861.745 36.963 936.133 139.865 1010.38 98.0785C1102.88 46.0138 1093.9 -65.6623 1035.6 -147.597C984.082 -220.002 907.022 -258.428 811.255 -243.364C685.431 -223.572 774.321 -30.5549 654.207 7.56818C557.688 38.2024 489.973 -77.8654 396.618 -40.5186Z" stroke="white" stroke-opacity="0.5" stroke-width="0.5"/>
<path d="M408.265 -23.1094C312.981 15.0091 278.762 92.7219 283.094 184.411C287.011 267.328 321.213 326.528 402.244 369.93C512.45 428.96 638.33 400.41 727.278 318.916C799.348 252.884 706.605 138.778 796.968 93.048C873.392 54.3722 947.781 157.274 1022.03 115.488C1114.53 63.423 1105.55 -48.2531 1047.25 -130.188C995.729 -202.592 918.67 -241.019 822.902 -225.955C697.079 -206.163 785.969 -13.1458 665.854 24.9774C569.335 55.6116 501.621 -60.4563 408.265 -23.1094Z" stroke="white" stroke-opacity="0.5" stroke-width="0.5"/>
<path d="M419.913 -5.70122C324.629 32.4173 290.409 110.13 294.741 201.819C298.659 284.736 332.861 343.936 413.891 387.339C524.097 446.368 649.978 417.818 738.925 336.324C810.996 270.293 718.253 156.186 808.616 110.456C885.04 71.7804 959.428 174.682 1033.67 132.896C1126.18 80.8312 1117.2 -30.8449 1058.9 -112.78C1007.38 -185.184 930.317 -223.61 834.55 -208.546C708.726 -188.755 797.616 4.26244 677.502 42.3856C580.983 73.0198 513.268 -43.0481 419.913 -5.70122Z" stroke="white" stroke-opacity="0.5" stroke-width="0.5"/>
<path d="M431.56 11.7089C336.275 49.8274 302.056 127.54 306.388 219.229C310.306 302.146 344.508 361.346 425.538 404.749C535.744 463.779 661.624 435.228 750.572 353.734C822.643 287.703 729.9 173.596 820.262 127.866C896.686 89.1906 971.075 192.092 1045.32 150.306C1137.83 98.2414 1128.84 -13.4347 1070.54 -95.3695C1019.02 -167.774 941.964 -206.2 846.197 -191.136C720.373 -171.344 809.263 21.6726 689.149 59.7957C592.63 90.4299 524.915 -25.6379 431.56 11.7089Z" stroke="white" stroke-opacity="0.5" stroke-width="0.5"/>
</svg>
