<svg width="48" height="48" viewBox="0 0 48 48" fill="none" xmlns="http://www.w3.org/2000/svg">
<path d="M39 48H9C4.029 48 0 43.971 0 39V9C0 4.029 4.029 0 9 0H39C43.971 0 48 4.029 48 9V39C48 43.971 43.971 48 39 48Z" fill="#FBF6EA"/>
<g clip-path="url(#clip0_603_2418)">
<path d="M17.8505 18.2119L15.8579 18.3659C15.3034 18.4087 14.8096 18.6993 14.503 19.1631L12.2049 22.6388C11.9724 22.9905 11.9354 23.4307 12.106 23.8163C12.2766 24.2019 12.6272 24.4706 13.0439 24.5352L14.8683 24.8178C15.2951 22.5528 16.3168 20.2934 17.8505 18.2119Z" fill="#1B7C9D"/>
<path d="M22.1829 32.1316L22.4655 33.9561C22.53 34.3728 22.7987 34.7234 23.1843 34.8939C23.3447 34.9649 23.5145 34.9999 23.6835 34.9999C23.9208 34.9999 24.1564 34.9308 24.3619 34.795L27.8376 32.497C28.3014 32.1903 28.592 31.6964 28.6348 31.142L28.7887 29.1494C26.7072 30.6832 24.4478 31.7049 22.1829 32.1316Z" fill="#1B7C9D"/>
<path d="M21.4968 30.8665C21.5602 30.8665 21.6239 30.8613 21.6874 30.8507C22.6363 30.6921 23.551 30.4248 24.4234 30.0749L16.9247 22.5762C16.5748 23.4486 16.3075 24.3632 16.1489 25.3122C16.0863 25.6862 16.2118 26.0673 16.4799 26.3355L20.6641 30.5196C20.8867 30.7422 21.1872 30.8665 21.4968 30.8665Z" fill="#1B7C9D"/>
<path d="M33.1661 22.1973C35.0011 18.6497 35.069 14.9007 34.9731 13.1425C34.9403 12.54 34.46 12.0597 33.8575 12.0269C33.5712 12.0113 33.2319 12 32.8495 12C30.8835 12 27.7726 12.2978 24.8027 13.834C22.4424 15.0548 19.3475 17.7429 17.5215 21.2757C17.543 21.2925 17.5641 21.3104 17.584 21.3302L25.6698 29.4161C25.6897 29.436 25.7075 29.457 25.7244 29.4786C29.2571 27.6525 31.9453 24.5576 33.1661 22.1973ZM25.3731 16.8623C26.6866 15.5488 28.8241 15.5486 30.1377 16.8623C30.7741 17.4986 31.1245 18.3447 31.1245 19.2446C31.1245 20.1445 30.7741 20.9906 30.1377 21.627C29.481 22.2837 28.618 22.6121 27.7554 22.6122C26.8925 22.6122 26.03 22.2838 25.3731 21.627C24.7367 20.9906 24.3863 20.1445 24.3863 19.2446C24.3863 18.3447 24.7367 17.4986 25.3731 16.8623Z" fill="#232536"/>
<path d="M26.326 20.6735C27.1141 21.4617 28.3966 21.4617 29.1848 20.6735C29.5666 20.2917 29.7769 19.7841 29.7769 19.2441C29.7769 18.7042 29.5666 18.1966 29.1848 17.8148C28.7907 17.4207 28.273 17.2236 27.7554 17.2236C27.2377 17.2236 26.7201 17.4207 26.326 17.8148C25.9442 18.1966 25.7339 18.7042 25.7339 19.2441C25.7339 19.7841 25.9442 20.2918 26.326 20.6735Z" fill="#232536"/>
<path d="M12.6875 30.9539C12.86 30.9539 13.0324 30.8881 13.164 30.7565L15.3639 28.5565C15.6271 28.2934 15.6271 27.8668 15.3639 27.6036C15.1008 27.3405 14.6741 27.3405 14.411 27.6036L12.211 29.8036C11.9479 30.0667 11.9479 30.4934 12.211 30.7565C12.3426 30.8881 12.5151 30.9539 12.6875 30.9539Z" fill="#1B7C9D"/>
<path d="M17.3802 29.6202C17.117 29.3571 16.6904 29.3571 16.4272 29.6202L12.1976 33.8498C11.9345 34.113 11.9345 34.5396 12.1976 34.8028C12.3292 34.9343 12.5016 35.0001 12.6741 35.0001C12.8465 35.0001 13.019 34.9343 13.1505 34.8027L17.3801 30.5731C17.6433 30.31 17.6433 29.8834 17.3802 29.6202Z" fill="#1B7C9D"/>
<path d="M18.4432 31.6358L16.2433 33.8358C15.9801 34.099 15.9801 34.5256 16.2433 34.7887C16.3748 34.9203 16.5473 34.9861 16.7197 34.9861C16.8921 34.9861 17.0646 34.9203 17.1961 34.7887L19.3961 32.5888C19.6593 32.3256 19.6593 31.899 19.3961 31.6358C19.133 31.3727 18.7063 31.3727 18.4432 31.6358Z" fill="#1B7C9D"/>
</g>
<defs>
<clipPath id="clip0_603_2418">
<rect width="23" height="23" fill="white" transform="translate(12 12)"/>
</clipPath>
</defs>
</svg>
