<svg width="48" height="48" viewBox="0 0 48 48" fill="none" xmlns="http://www.w3.org/2000/svg">
<path d="M39 48H9C4.029 48 0 43.971 0 39V9C0 4.029 4.029 0 9 0H39C43.971 0 48 4.029 48 9V39C48 43.971 43.971 48 39 48Z" fill="#FBF6EA"/>
<path d="M25.0305 13.914L14.04 12.2445C13.53 12.165 13.0095 12.3045 12.6195 12.6345C12.2295 12.975 12 13.464 12 13.974V35.0445C12 35.595 12.45 36.045 13.0005 36.045H16.251V30.795C16.251 29.8245 17.031 29.0445 18.0015 29.0445H20.502C21.4725 29.0445 22.2525 29.8245 22.2525 30.795V36.045H26.502V15.645C26.5005 14.784 25.8795 14.055 25.0305 13.914ZM17.5005 26.7945H16.0005C15.5865 26.7945 15.2505 26.4585 15.2505 26.0445C15.2505 25.6305 15.5865 25.2945 16.0005 25.2945H17.5005C17.9145 25.2945 18.2505 25.6305 18.2505 26.0445C18.2505 26.4585 17.9145 26.7945 17.5005 26.7945ZM17.5005 23.7945H16.0005C15.5865 23.7945 15.2505 23.4585 15.2505 23.0445C15.2505 22.6305 15.5865 22.2945 16.0005 22.2945H17.5005C17.9145 22.2945 18.2505 22.6305 18.2505 23.0445C18.2505 23.4585 17.9145 23.7945 17.5005 23.7945ZM17.5005 20.7945H16.0005C15.5865 20.7945 15.2505 20.4585 15.2505 20.0445C15.2505 19.6305 15.5865 19.2945 16.0005 19.2945H17.5005C17.9145 19.2945 18.2505 19.6305 18.2505 20.0445C18.2505 20.4585 17.9145 20.7945 17.5005 20.7945ZM17.5005 17.7945H16.0005C15.5865 17.7945 15.2505 17.4585 15.2505 17.0445C15.2505 16.6305 15.5865 16.2945 16.0005 16.2945H17.5005C17.9145 16.2945 18.2505 16.6305 18.2505 17.0445C18.2505 17.4585 17.9145 17.7945 17.5005 17.7945ZM22.5 26.7945H21C20.586 26.7945 20.25 26.4585 20.25 26.0445C20.25 25.6305 20.586 25.2945 21 25.2945H22.5C22.914 25.2945 23.25 25.6305 23.25 26.0445C23.25 26.4585 22.914 26.7945 22.5 26.7945ZM22.5 23.7945H21C20.586 23.7945 20.25 23.4585 20.25 23.0445C20.25 22.6305 20.586 22.2945 21 22.2945H22.5C22.914 22.2945 23.25 22.6305 23.25 23.0445C23.25 23.4585 22.914 23.7945 22.5 23.7945ZM22.5 20.7945H21C20.586 20.7945 20.25 20.4585 20.25 20.0445C20.25 19.6305 20.586 19.2945 21 19.2945H22.5C22.914 19.2945 23.25 19.6305 23.25 20.0445C23.25 20.4585 22.914 20.7945 22.5 20.7945ZM22.5 17.7945H21C20.586 17.7945 20.25 17.4585 20.25 17.0445C20.25 16.6305 20.586 16.2945 21 16.2945H22.5C22.914 16.2945 23.25 16.6305 23.25 17.0445C23.25 17.4585 22.914 17.7945 22.5 17.7945Z" fill="#232536"/>
<path d="M34.6198 22.8865L27.4993 21.3955V36.0445H34.2493C35.2138 36.0445 35.9998 35.26 35.9998 34.294V24.5965C35.9998 23.77 35.4358 23.0665 34.6198 22.8865ZM32.2498 33.0445H30.7498C30.3358 33.0445 29.9998 32.7085 29.9998 32.2945C29.9998 31.8805 30.3358 31.5445 30.7498 31.5445H32.2498C32.6638 31.5445 32.9998 31.8805 32.9998 32.2945C32.9998 32.7085 32.6638 33.0445 32.2498 33.0445ZM32.2498 30.0445H30.7498C30.3358 30.0445 29.9998 29.7085 29.9998 29.2945C29.9998 28.8805 30.3358 28.5445 30.7498 28.5445H32.2498C32.6638 28.5445 32.9998 28.8805 32.9998 29.2945C32.9998 29.7085 32.6638 30.0445 32.2498 30.0445ZM32.2498 27.0445H30.7498C30.3358 27.0445 29.9998 26.7085 29.9998 26.2945C29.9998 25.8805 30.3358 25.5445 30.7498 25.5445H32.2498C32.6638 25.5445 32.9998 25.8805 32.9998 26.2945C32.9998 26.7085 32.6638 27.0445 32.2498 27.0445Z" fill="#1B7C9D"/>
</svg>
