<svg width="32" height="32" viewBox="0 0 32 32" fill="none" xmlns="http://www.w3.org/2000/svg">
<path fill-rule="evenodd" clip-rule="evenodd" d="M22.2119 2.66699C26.6519 2.66699 29.9999 6.28966 29.9999 11.0937V20.251C29.9999 22.7097 29.1306 24.931 27.5506 26.507C26.1333 27.919 24.2946 28.667 22.2333 28.667H9.09592C7.03859 28.667 5.20125 27.9203 3.78259 26.507C2.20259 24.931 1.33325 22.7097 1.33325 20.251V11.0937C1.33325 6.28966 4.68125 2.66699 9.12125 2.66699H22.2119ZM22.2119 4.66699H9.12125C5.76792 4.66699 3.33325 7.36966 3.33325 11.0937V20.251C3.33325 22.175 3.99459 23.8937 5.19458 25.0897C6.22925 26.123 7.57992 26.667 9.09992 26.667H22.2119C22.2146 26.6643 22.2253 26.667 22.2333 26.667C23.7546 26.667 25.1039 26.123 26.1386 25.0897C27.3399 23.8937 27.9999 22.175 27.9999 20.251V11.0937C27.9999 7.36966 25.5653 4.66699 22.2119 4.66699ZM24.3132 10.8387C24.6612 11.2667 24.5959 11.8961 24.1679 12.2454L18.2426 17.0614C17.4933 17.6561 16.5973 17.9534 15.7026 17.9534C14.8106 17.9534 13.9213 17.6587 13.1773 17.0694L7.19725 12.2481C6.76659 11.9014 6.69992 11.2707 7.04525 10.8414C7.39325 10.4134 8.02259 10.3454 8.45192 10.6907L14.4266 15.5067C15.1773 16.1014 16.2346 16.1014 16.9906 15.5014L22.9052 10.6934C23.3346 10.3427 23.9639 10.4094 24.3132 10.8387Z" fill="white"/>
</svg>
