<svg width="24" height="24" viewBox="0 0 24 24" fill="none" xmlns="http://www.w3.org/2000/svg">
<g clip-path="url(#clip0_426_207)">
<path d="M14.9498 9.05108C15.7723 9.8735 17.1105 9.87355 17.933 9.05108C18.3314 8.65264 18.5508 8.12295 18.5508 7.55952C18.5508 6.99608 18.3314 6.46639 17.933 6.068C17.5218 5.65677 16.9816 5.45117 16.4414 5.45117C15.9013 5.45117 15.3611 5.65677 14.9499 6.068C14.5515 6.46639 14.332 6.99608 14.332 7.55952C14.332 8.12295 14.5515 8.65269 14.9498 9.05108Z" fill="#232536"/>
<path d="M6.10492 6.48145L4.02565 6.64208C3.44708 6.6868 2.93179 6.99003 2.61182 7.47401L0.213854 11.1008C-0.0288162 11.4678 -0.067394 11.9271 0.110589 12.3295C0.288619 12.7319 0.654475 13.0123 1.08924 13.0797L2.99305 13.3745C3.43841 11.0111 4.50452 8.65347 6.10492 6.48145Z" fill="#1B7C9D"/>
<path d="M10.625 21.0054L10.9199 22.9092C10.9872 23.344 11.2677 23.7099 11.67 23.8878C11.8374 23.9619 12.0146 23.9985 12.1908 23.9985C12.4385 23.9985 12.6844 23.9263 12.8987 23.7846L16.5256 21.3867C17.0096 21.0666 17.3128 20.5513 17.3575 19.9728L17.5181 17.8936C15.346 19.494 12.9885 20.5601 10.625 21.0054Z" fill="#1B7C9D"/>
<path d="M9.90948 19.6869C9.97557 19.6869 10.042 19.6815 10.1084 19.6704C11.0985 19.5049 12.0529 19.226 12.9633 18.8609L5.13853 11.0361C4.77347 11.9465 4.49456 12.9009 4.329 13.8911C4.26375 14.2814 4.39467 14.679 4.67447 14.9589L9.04056 19.325C9.27287 19.5572 9.58642 19.6869 9.90948 19.6869Z" fill="#1B7C9D"/>
<path d="M22.0865 10.6407C24.0013 6.93881 24.0722 3.02684 23.9721 1.19216C23.9379 0.563527 23.4367 0.0623433 22.808 0.0280779C22.5093 0.0117655 22.1552 0 21.7562 0C19.7047 0 16.4586 0.310732 13.3595 1.9137C10.8966 3.18762 7.66708 5.99264 5.76172 9.67896C5.78422 9.69653 5.8062 9.71519 5.82692 9.73591L14.2644 18.1733C14.2851 18.1941 14.3037 18.216 14.3213 18.2385C18.0076 16.3331 20.8126 13.1036 22.0865 10.6407ZM13.9547 5.07371C15.3254 3.70305 17.5557 3.70291 18.9265 5.07371C19.5905 5.73769 19.9562 6.62057 19.9562 7.55961C19.9562 8.49865 19.5905 9.38154 18.9265 10.0455C18.2412 10.7308 17.3407 11.0735 16.4406 11.0736C15.5402 11.0736 14.6402 10.731 13.9547 10.0455C13.2907 9.38154 12.925 8.49865 12.925 7.55961C12.925 6.62057 13.2907 5.73769 13.9547 5.07371Z" fill="#232536"/>
<path d="M0.716821 19.7781C0.896774 19.7781 1.07673 19.7094 1.21398 19.5721L3.50959 17.2765C3.78418 17.0019 3.78418 16.5567 3.50959 16.2821C3.23504 16.0075 2.78982 16.0075 2.51523 16.2821L0.219617 18.5777C-0.0549766 18.8523 -0.0549766 19.2975 0.219617 19.5721C0.356914 19.7094 0.536867 19.7781 0.716821 19.7781Z" fill="#1B7C9D"/>
<path d="M5.61382 18.3856C5.33927 18.111 4.89405 18.111 4.61946 18.3856L0.205945 22.7992C-0.0686484 23.0737 -0.0686484 23.5189 0.205945 23.7935C0.343242 23.9308 0.523195 23.9994 0.703148 23.9994C0.883102 23.9994 1.06305 23.9308 1.2003 23.7935L5.61377 19.38C5.88841 19.1054 5.88841 18.6602 5.61382 18.3856Z" fill="#1B7C9D"/>
<path d="M6.72221 20.4911L4.42665 22.7867C4.15205 23.0613 4.15205 23.5065 4.42665 23.7811C4.56395 23.9184 4.7439 23.987 4.9238 23.987C5.10371 23.987 5.28371 23.9184 5.42096 23.7811L7.71657 21.4855C7.99116 21.2109 7.99116 20.7657 7.71657 20.4911C7.44202 20.2165 6.9968 20.2165 6.72221 20.4911Z" fill="#1B7C9D"/>
</g>
<defs>
<clipPath id="clip0_426_207">
<rect width="24" height="24" fill="white"/>
</clipPath>
</defs>
</svg>
